<svg height="494" width="720" xmlns="http://www.w3.org/2000/svg">
<rect height="494" fill="#555" width="720"></rect>
<text fill="#7f7" font-family="Courier New" font-size="12" xml:space="preserve">
<tspan x="10" y="26">6 megabytes installed</tspan>
<tspan x="10" y="42"></tspan>
<tspan x="10" y="58">node_modules</tspan>
<tspan x="10" y="74">└─┬ vtop@0.5.7 </tspan>
<tspan x="10" y="90">  ├── blessed@0.1.81 </tspan>
<tspan x="10" y="106">  ├─┬ commander@2.7.1 </tspan>
<tspan x="10" y="122">  │ └── graceful-readlink@1.0.1 </tspan>
<tspan x="10" y="138">  ├── drawille@1.0.0 </tspan>
<tspan x="10" y="154">  ├─┬ glob@5.0.2 </tspan>
<tspan x="10" y="170">  │ ├─┬ inflight@1.0.6 </tspan>
<tspan x="10" y="186">  │ │ └── wrappy@1.0.2 </tspan>
<tspan x="10" y="202">  │ ├── inherits@2.0.3 </tspan>
<tspan x="10" y="218">  │ ├─┬ minimatch@2.0.10 </tspan>
<tspan x="10" y="234">  │ │ └─┬ brace-expansion@1.1.7 </tspan>
<tspan x="10" y="250">  │ │   ├── balanced-match@0.4.2 </tspan>
<tspan x="10" y="266">  │ │   └── concat-map@0.0.1 </tspan>
<tspan x="10" y="282">  │ └── once@1.4.0 </tspan>
<tspan x="10" y="298">  ├─┬ husky@0.11.9 </tspan>
<tspan x="10" y="314">  │ ├─┬ is-ci@1.0.10 </tspan>
<tspan x="10" y="330">  │ │ └── ci-info@1.0.0 </tspan>
<tspan x="10" y="346">  │ └── normalize-path@1.0.0 </tspan>
<tspan x="10" y="362">  ├── os-utils@0.0.14 </tspan>
<tspan x="10" y="378">  ├─┬ read@1.0.5 </tspan>
<tspan x="10" y="394">  │ └── mute-stream@0.0.7 </tspan>
<tspan x="10" y="410">  ├── safe-eval@0.3.0 </tspan>
<tspan x="10" y="426">  ├─┬ sudo@1.0.3 </tspan>
<tspan x="10" y="442">  │ ├── inpath@1.0.2 </tspan>
<tspan x="10" y="458">  │ └── pidof@1.0.2 </tspan>
<tspan x="10" y="474">  └── use-strict@1.0.1</tspan>
</text>
</svg>
